<?xml version="1.0" encoding="UTF-8"?>
<svg width="24px" height="24px" viewBox="0 0 24 24" version="1.1" xmlns="http://www.w3.org/2000/svg" xmlns:xlink="http://www.w3.org/1999/xlink">
    <title>077D67D4-D38F-4A74-A61D-18BF9303AFE6</title>
    <g id="Page-1" stroke="none" stroke-width="1" fill="none" fill-rule="evenodd">
        <g id="Environments-Application-(stb)" transform="translate(-1111.000000, -405.000000)">
            <rect fill="#FFFFFF" x="0" y="0" width="1440" height="900"></rect>
            <g id="Table-Content" transform="translate(198.500000, 346.000000)" fill="#262626">
                <g id="icon/action/edit" transform="translate(912.500000, 59.000000)">
                    <path d="M21.25,19.5 C21.65,19.5 22,19.85 22,20.25 C22,20.65 21.65,21 21.25,21 L21.25,21 L8.04999998,21 L9.09999999,19.5 Z M3.34999996,17.15 L6.49999996,19.35 L2.99999996,21 L3.34999996,17.15 Z M13.9,2.09999996 C14.45,1.29999996 15.7,1.04999995 16.55,1.64999996 L16.55,1.64999996 L16.6862735,1.74958444 C17.4688366,2.37534622 17.6184211,3.49473681 17.05,4.29999997 L17.05,4.29999997 L7.34999998,18.1 L4.19999997,15.9 Z" id="Combined-Shape"></path>
                </g>
            </g>
        </g>
    </g>
</svg>