<?xml version="1.0" encoding="UTF-8"?>
<svg width="24px" height="24px" viewBox="0 0 24 24" version="1.1" xmlns="http://www.w3.org/2000/svg" xmlns:xlink="http://www.w3.org/1999/xlink">
    <title>4FEF074E-7F8F-44FA-B16D-35BB930F56CA</title>
    <g id="Page-1" stroke="none" stroke-width="1" fill="none" fill-rule="evenodd">
        <g id="Environments-Application-(stb)" transform="translate(-1175.000000, -405.000000)">
            <rect fill="#FFFFFF" x="0" y="0" width="1440" height="900"></rect>
            <g id="Table-Content" transform="translate(198.500000, 346.000000)" fill="#262626">
                <g id="Group" transform="translate(912.500000, 59.000000)">
                    <g id="icon/action/download" transform="translate(64.000000, 0.000000)">
                        <path d="M21.25,20.5 C21.65,20.5 22,20.85 22,21.25 C22,21.65 21.65,22 21.25,22 L21.25,22 L2.74999996,22 C2.34999996,22 1.99999996,21.65 1.99999996,21.25 C1.99999996,20.85 2.34999996,20.5 2.74999996,20.5 L2.74999996,20.5 Z M12,1.99999996 C12.4,1.99999996 12.75,2.34999996 12.75,2.74999996 L12.75,2.74999996 L12.75,9.49999996 L16.6,9.49999996 L12,16.5 L7.39999998,9.49999996 L11.25,9.49999996 L11.25,2.74999996 C11.25,2.34999996 11.6,1.99999996 12,1.99999996 Z" id="Combined-Shape"></path>
                    </g>
                </g>
            </g>
        </g>
    </g>
</svg>