<?xml version="1.0" encoding="UTF-8"?>
<svg width="72px" height="36px" viewBox="0 0 72 36" version="1.1" xmlns="http://www.w3.org/2000/svg" xmlns:xlink="http://www.w3.org/1999/xlink">
    <title>8E26D681-E1F8-4E3C-B394-9DBDAA00E2CB@2x</title>
    <g id="Page-1" stroke="none" stroke-width="1" fill="none" fill-rule="evenodd">
        <g id="Environments-Application-(stb)" transform="translate(-223.000000, -24.000000)" fill="#FFFFFF">
            <g id="brand-header" transform="translate(199.000000, 0.000000)">
                <g id="Group" transform="translate(24.000000, 24.000000)">
                    <polygon id="Fill-1" points="-4.4408921e-16 23.3849487 7.14764103 23.3849487 7.14764103 16.2373077 -4.4408921e-16 16.2373077"></polygon>
                    <polygon id="Fill-2" points="21.7958462 23.3849487 28.9434872 23.3849487 28.9434872 16.2373077 21.7958462 16.2373077"></polygon>
                    <polygon id="Fill-3" points="43.2387692 23.3849487 50.3864103 23.3849487 50.3864103 16.2373077 43.2387692 16.2373077"></polygon>
                    <polygon id="Fill-4" points="64.6816923 23.3849487 71.8293333 23.3849487 71.8293333 16.2373077 64.6816923 16.2373077"></polygon>
                    <path d="M28.5896154,0 L0.352923077,0 L0,12.4547692 L1.87276923,12.7792308 C2.22189744,9.10958974 3.18484615,6.38582051 4.7625641,4.60887179 C6.42282051,2.74938462 8.70828205,1.77789744 11.6474103,1.69441026 L11.6474103,27.75 C11.6474103,30.0250256 11.3295897,31.5021795 10.6654872,32.183359 C10.101,32.7658718 9.14564103,33.1225897 7.80130769,33.2544615 C7.40284615,33.2876667 6.72166667,33.3047436 5.75871795,33.3047436 L5.75871795,35.2970513 L23.1838205,35.2970513 L23.1838205,33.3047436 C22.2208718,33.3047436 21.540641,33.2876667 21.1412308,33.2544615 C19.7968974,33.1225897 18.8415385,32.7658718 18.2770513,32.183359 C17.6129487,31.5021795 17.2913333,30.0250256 17.2913333,27.75 L17.2913333,1.69441026 C20.2304615,1.77789744 22.5206667,2.74938462 24.1809231,4.60887179 C25.758641,6.38582051 26.7215897,9.10958974 27.0697692,12.7792308 L28.9434872,12.4547692 L28.5896154,0" id="Fill-5"></path>
                </g>
            </g>
        </g>
    </g>
</svg>