<?xml version="1.0" encoding="UTF-8"?>
<svg width="24px" height="24px" viewBox="0 0 24 24" version="1.1" xmlns="http://www.w3.org/2000/svg" xmlns:xlink="http://www.w3.org/1999/xlink">
    <title>44B06682-8FDD-4886-B8E8-3F0A2EA2EA83</title>
    <g id="Page-1" stroke="none" stroke-width="1" fill="none" fill-rule="evenodd">
        <g id="Environments-Application-(stb)" transform="translate(-1095.000000, -207.000000)">
            <rect fill="#FFFFFF" x="0" y="0" width="1440" height="900"></rect>
            <rect id="Rectangle-Copy-3" stroke="#B2B2B2" x="1088" y="201" width="130" height="36" rx="4"></rect>
            <g id="icon/action/upload" transform="translate(1095.000000, 207.000000)" fill="#262626">
                <path d="M21.25,20.5 C21.65,20.5 22,20.85 22,21.25 C22,21.65 21.65,22 21.25,22 L21.25,22 L2.74999996,22 C2.34999996,22 1.99999996,21.65 1.99999996,21.25 C1.99999996,20.85 2.34999996,20.5 2.74999996,20.5 L2.74999996,20.5 Z M12,1.99999996 L16.6,8.99999996 L12.75,8.99999996 L12.75,15.75 C12.75,16.15 12.4,16.5 12,16.5 C11.6,16.5 11.25,16.15 11.25,15.75 L11.25,15.75 L11.25,8.99999996 L7.39999998,8.99999996 L12,1.99999996 Z" id="Combined-Shape"></path>
            </g>
        </g>
    </g>
</svg>